<svg id="flag" xmlns="http://www.w3.org/2000/svg" viewBox="0 0 516.2 343.8"><style>.st0{fill:#FFFFFF;} .st1{fill:none;} .st2{fill:#EC1E24;} .st3{fill:#FCCA0C;} .st4{fill:#3C4ACC;}</style><path d="M0 158.7h516.1v26.4H0v-26.4z"/><path d="M0 211.6h516.2V238H.1c-.1-8.8-.1-17.6-.1-26.4z"/><path d="M0 264.5h516.2v26.4c-1.6.1-3.2.2-4.8.2-169.9-.1-339.8-.1-509.8-.2H0v-26.4z"/><path d="M0 317.4h516.2v26.4H0v-26.4z"/><path class="st0" d="M8.5 17.7c3.3 0 6.6-.1 9.9 0 2.4.1 3.6-.9 4.3-3.2 1-3.5 2.2-6.8 3.7-11.4 1.4 4.4 2.7 7.7 3.6 11.1.7 2.6 2.1 3.7 4.8 3.6 3.3-.1 6.5 0 9.8 0 .1.4.1.7.2 1.1-2.4 1.9-4.6 4-7.2 5.5-3.1 1.8-3.3 4-2.2 7 1.1 3 1.8 6.1 3 10.2-3.7-2.6-6.6-4.5-9.4-6.6-1.9-1.5-3.5-1.4-5.3 0-2.7 2.1-5.6 4-9.4 6.7 1.3-4.6 2.3-8.1 3.4-11.6.7-2.2.3-3.7-1.7-5.1-2.7-1.9-5.2-4-7.8-6 0-.5.1-.9.3-1.3z"/><path class="st0" d="M160.4 41.6c1.1-3.9 1.5-6.7 2.6-9.2 2-4.2.7-6.9-3.1-9.1-2.1-1.2-3.9-3-5.8-4.5.1-.3.2-.7.3-1 2.7 0 5.5-.1 8.2 0 3.7.2 6-.9 6.7-4.9.5-2.8 1.7-5.5 3.6-8.4 1.1 3.3 2.3 6.6 3.2 10 .6 2.3 1.8 3.3 4.2 3.2 3.4-.1 6.8 0 10.2 0 .1.4.1.8.2 1.2-2.7 2.1-5.3 4.4-8.1 6.3-1.9 1.3-2.2 2.7-1.5 4.7 1.1 3.5 2 7.1 3.4 11.8-3.4-2.4-6.1-4.1-8.4-6.1-2.6-2.3-4.8-2.1-7.3.1-2.5 1.9-5.1 3.5-8.4 5.9z"/><path class="st0" d="M183.4 124c-2.8-2-5.5-4.2-8.4-5.9-1.1-.6-3.1-.6-4.1 0-3.1 1.8-5.9 4.1-9.6 5.8.9-3.3 1.7-6.7 2.8-10 .9-2.6.3-4.3-1.9-5.8-2.5-1.7-4.9-3.7-7.2-6.5 2.9-.2 5.8-.6 8.7-.5 3.3.1 5.1-1 5.9-4.4.6-3.1 1.9-6.1 3.3-10.4 1.4 4.4 2.6 7.7 3.5 11 .7 2.6 1.9 3.8 4.7 3.7 3.2-.1 6.3.2 9.8 1.3-2.4 1.9-4.7 4-7.3 5.7-2.3 1.5-2.9 3.1-1.9 5.7 1.1 3.1 1.8 6.3 2.7 9.5-.4.4-.7.6-1 .8z"/><path class="st0" d="M13.1 123.9c1-3.4 1.9-6.9 3-10.3.7-2.2.3-3.7-1.6-5.1-2.7-1.9-5.2-4-7.6-6.9 3-.2 6-.5 9-.4 3.2.1 4.9-1 5.6-4.2.7-3.1 1.9-6 3.8-9.1 1 2.9 2.2 5.8 2.9 8.9.7 3.3 2.5 4.6 5.9 4.4 2.8-.1 5.7.2 8.9 1.3-2.3 1.8-4.4 3.7-6.8 5.3-2.7 1.7-3.4 3.6-2.3 6.7 1.2 3.1 1.8 6.3 3 10.6-3.4-2.4-6-3.9-8.2-5.9-2.7-2.4-5-2.2-7.6.1-2.2 1.9-4.7 3.4-7.1 5.1-.4-.2-.7-.4-.9-.5z"/><g><path class="st1" d="M102.1 13.2C73 13.2 49 37 48.9 66c-.1 29 23.9 53 53 53.1 29 .1 53-23.6 53.1-52.4 0-29.6-23.5-53.4-52.9-53.5z"/><path class="st1" d="M183.6 108.2c2.6-1.7 4.9-3.8 7.3-5.7-3.5-1.1-6.7-1.4-9.8-1.3-2.8.1-4.1-1.1-4.7-3.7-.9-3.3-2.1-6.6-3.5-11-1.4 4.3-2.7 7.3-3.3 10.4-.7 3.4-2.6 4.5-5.9 4.4-2.9-.1-5.8.3-8.7.5 2.3 2.8 4.7 4.8 7.2 6.5 2.2 1.5 2.8 3.2 1.9 5.8-1.1 3.3-1.9 6.6-2.8 10 3.7-1.7 6.5-4 9.6-5.8 1.1-.6 3.1-.6 4.1 0 3 1.7 5.6 3.9 8.4 5.9l.9-.6c-.9-3.2-1.5-6.4-2.7-9.5-.8-2.8-.2-4.4 2-5.9z"/><path class="st1" d="M34.7 17.7c-2.7.1-4.1-1-4.8-3.6-.9-3.4-2.1-6.7-3.6-11.1-1.5 4.6-2.7 8-3.7 11.4-.6 2.3-1.9 3.3-4.3 3.2-3.3-.1-6.6 0-9.9 0-.1.4-.3.8-.4 1.3 2.6 2 5.1 4.2 7.8 6 2 1.4 2.4 2.9 1.7 5.1-1.1 3.5-2 7-3.4 11.6 3.8-2.7 6.7-4.6 9.4-6.7 1.9-1.4 3.4-1.6 5.3 0 2.7 2.2 5.7 4.1 9.4 6.6-1.2-4.1-1.9-7.2-3-10.2-1.1-3-.8-5.2 2.2-7 2.6-1.5 4.8-3.7 7.2-5.5-.1-.4-.1-.7-.2-1.1-3.2 0-6.4-.1-9.7 0z"/><path class="st1" d="M35.9 107.8c2.4-1.5 4.5-3.5 6.8-5.3-3.1-1.1-6-1.5-8.9-1.3-3.4.2-5.1-1.1-5.9-4.4-.7-3-1.9-5.9-2.9-8.9-1.8 3.1-3.1 6-3.8 9.1-.7 3.2-2.4 4.3-5.6 4.2-3-.1-6 .3-9 .4 2.4 2.9 4.9 5 7.6 6.9 2 1.4 2.4 2.9 1.6 5.1-1.1 3.4-2 6.8-3 10.3.2.2.5.3.7.5 2.4-1.7 4.9-3.2 7.1-5.1 2.6-2.3 4.9-2.5 7.6-.1 2.2 2 4.9 3.5 8.2 5.9-1.2-4.2-1.9-7.5-3-10.6-.9-3-.1-4.9 2.5-6.7z"/><path class="st1" d="M163 32.4c-1.1 2.5-1.5 5.3-2.6 9.2 3.4-2.4 6-4 8.3-6 2.5-2.2 4.7-2.4 7.3-.1 2.3 2 5 3.7 8.4 6.1-1.3-4.6-2.2-8.2-3.4-11.8-.7-2.1-.4-3.4 1.5-4.7 2.8-1.9 5.4-4.2 8.1-6.3-.1-.4-.1-.8-.2-1.2-3.4 0-6.8-.1-10.2 0-2.4.1-3.6-.9-4.2-3.2-.9-3.4-2.1-6.6-3.2-10-1.9 2.9-3.1 5.6-3.6 8.4-.7 4-3 5.2-6.7 4.9-2.7-.2-5.5 0-8.2 0-.1.3-.2.7-.3 1 1.9 1.5 3.7 3.3 5.8 4.5 3.9 2.3 5.1 5 3.2 9.2z"/><path class="st2" d="M0 0v132.2c1.1 0 2.1-.1 3.2-.1H198.4V0H0zm101.8 119.1c-29-.1-53-24.1-53-53.1.2-29 24.2-52.8 53.3-52.8 29.4.1 52.9 23.8 52.8 53.5-.1 28.8-24.1 52.5-53.1 52.4z"/><path class="st0" d="M198.5 105.9h1.9V79.4h-1.9v26.5z"/><path class="st0" d="M198.5 26.5v26.4h1.9V26.5h-1.9z"/><path d="M200.4 26.5H511c1.7 0 3.5-.1 5.2-.1V0H198.4v132.1h2c104.3 0 208.6.1 312.9.2.9 0 1.9 0 2.8-.1v-26.4c-2.5 0-5 .1-7.5.1H198.5V79.5H510.9c1.7 0 3.5 0 5.2-.1V53c-1.3 0-2.7.1-4 .1H198.4V26.7c.8-.2 1.4-.2 2-.2z"/></g><polygon class="st3" points="25.7,86.7 30.5,101.3 45.6,101.5 33.5,111.1 37.5,126.4 25.1,117.3 13.2,126.4 17.6,111.1 5.6,101.7 20,101.3"/><polygon class="st3" points="26.5,3 31.3,17.7 46.4,17.8 34.3,27.4 38.3,42.7 25.9,33.6 14,42.7 18.4,27.4 6.4,18 20.8,17.7"/><polygon class="st3" points="172.4,2.9 177.2,17.6 192.3,17.7 180.2,27.3 184.2,42.6 171.9,33.5 159.9,42.6 164.3,27.3 152.4,17.9 166.7,17.6"/><polygon class="st3" points="173.1,86.8 177.8,101.5 192.9,101.7 180.8,111.3 184.9,126.6 172.5,117.5 160.6,126.6 165,111.3 153,101.9 167.4,101.5"/><g><path class="st4" d="M60.1 54.7c0 .5.2.9.5 1.2.2.3.4.6.5.9.1.5.3.7.8.8.5.1.9.4 1 .9.1.5.4.6.9.4 1-.4 1.9-.8 2.9-1.1 0 .1-.1.3-.1.5-.1.7-.2 1.4-.2 2 0 .7.5 1.1 1.1 1.1 1.2 0 2.5 0 3.7-.1.6 0 1.1-.2 1.6-.7.1-.1.1-.2.2-.1.7.1 1.1-.4 1.6-.8.5-.5 1.1-.8 1.9-.8.5 0 1-.1 1.5-.2 0 0 .1.1.1.2.3.4.4.8.1 1.3-.2.2-.1.6-.1 1v.8c-.1.4-.1.7 0 1 .4.9 1.1 1.6 1.8 2.3.4.3.9.5 1.4.4.2 0 .4.1.5.2.2.1.4.4.6.5.3.1.6.2.8.5.3.3.6.6 1.1.5.3-.1.5 0 .6.4.2.7.6.9 1.4.8.2-.1.5 0 .7.1.5.2.9.5 1.4.7.3.1.5.3.5.6.1.4.1.9.1 1.3 0 .6.1 1.2-.5 1.7-.1.1-.1.2-.1.3.1.5.2 1 .5 1.3.7.6 1.4.9 2.3 1h1.2c.5 0 .7.3.5.7 0 .1-.1.2-.1.4-.5 1-.2 1.7.9 2 .2.1.5.3.5.5 0 .8.4 1.6-.2 2.4-.1.1-.2.2-.2.3 0 .2-.1.5 0 .6.1.2.1.3 0 .5-.3.4-.5.8-.5 1.2l-.3 3c0 .5-.1 1 0 1.5 0 .4.2.8.7.9.6.1 1.2.2 1.7.2 1.5 0 2.7 1.4 2.4 2.9-.1.4-.1.8 0 1.2 0 .5.2.6.7.5.2 0 .5-.1.7-.1.6 0 1 .3 1 .9-.1.7-.2 1.4-.4 2-.2.7-.3.7.3 1.1.6.4.9 1 .8 1.8-.1.5-.2 1-.2 1.5 0 .8-.5 1.2-1.1 1.3-1.5.5-2.7 1.4-3.8 2.5-.7.6-1.3 1.4-1.9 2.1-.4.4-.4.6-.1 1.1.1.1.2.3.2.4.5.6 1 1.1.9 2-.1.4.2.5.5.4.2 0 .3-.1.4-.2.3-.2.5-.1.7.1.7.9 1.6 1.7 2.5 2.4.4.3.7.7.8 1.2.1.4.3.5.7.4.3 0 .6-.1 1-.2.2.4.5.5.8.1.1-.2.3-.4.3-.6.2-.9.6-1.6 1.2-2.2.6-.6 1.2-1.2 1.8-1.9 0 0 .1.1.2.1.5.5 1 .5 1.4-.1.2-.3.4-.7.6-1.1.3-.6.7-1.1 1.3-1.5.4-.3.7-.7 1-1.1.5-.7.6-1.5.7-2.3.1-.7.1-1.4.2-2.1 0-.3.1-.5.1-.8.1-.9.9-1.5.7-2.5.2.1.3.2.5.3.3.1.5.1.6-.2.3-.7.9-1 1.5-1.2.5-.2.9-.4 1.4-.7.5-.4 1-.8 1.7-.7 1 0 2-.2 2.7-1 .6-.7 1.3-.8 2.1-.3.5.3 1.1.3 1.7.2 1.1-.2 2.1-.7 3-1.3.7-.5 1.4-1.1 1.7-1.9.2-.5.6-1 1.2-1.2.2-.1.4-.2.5-.3.7-.9 1.5-1.8 2.2-2.7.4-.5.2-1 .2-1.6 0-.5.1-1 .5-1.3.8-.5 1.1-1.2 1.4-2 .1-.3.1-.7.2-1 0-.1.1-.1.1-.2.1-.2.1-.5.2-.7.1-.7.3-1.3.4-2 .1-.8.2-1.6.4-2.4.1-.8.2-1.5.3-2.3.1-.5.4-1 .9-1.2 1.8-.6 3-1.8 3.5-3.6.3-.9.8-1.3 1.6-1.4 1-.2 1.9-.5 2.4-1.4.2-.2.2-.5.4-.7l1.5-1.5c1.2-1.2 1.7-2.6 1.2-4.3-.2-.6-.2-1.1-.3-1.7-.1-.5 0-1-.2-1.4-.3-1-.9-1.8-2-2-.3-.1-.6-.2-.9-.2-.7-.1-1.3-.4-1.7-.9-.8-1-1.5-2-2.2-3-.5-.6-.8-1.3-1.7-1.4-.1 0-.2-.2-.3-.3-.4-.7-.9-1-1.7-1.1-.4 0-.8-.1-1.2 0-1 .3-2 0-2.9-.3-.4-.1-.8-.4-1-.7-.3-.4-.8-.5-1.2-.6-.9-.1-1.7.1-2.5.4-.4.2-.8.3-1.3.5.2-.8.4-1.6.6-2.3.1-.4.1-.5-.3-.7-.6-.2-1.1-.6-1.6-.9-.3-.2-.5-.4-.8-.6-1-.6-2.1-.9-3.3-1.2-1.3-.2-2.5-.1-3.6.8-.5.4-1.1.8-1.6 1.2-.2-.4-.4-.7-.7-1 .2 0 .4-.1.6-.2.4-.2.8-.3 1.1-.5.6-.4 1.1-.9 1.6-1.4.3-.3.2-.5-.2-.7-1.1-.5-2.3-.7-3.5-.7-.6 0-1 .2-1.5.5s-.9.6-1.3.9c-.4.2-.8.4-1.3.3.2-.4.3-.7.5-1 .9-1.2 1.9-2.1 3.2-2.8.4-.2.7-.4.6-.9-.1-.3.1-.6.3-.8.2-.2.4-.3.7-.5l-.6-.3c-.4-.1-.8-.2-1.1-.4-.2-.1-.5-.3-.5-.6-.1-.4-.1-.9-.2-1.4-.2-1-.5-2.1-.8-3-.5-.3-.8-.1-1 .2-.3.3-.6.5-.8.8-.1.2-.2.4-.2.6.1.6.1.7-.5.8-.5.1-.8.4-.9.8-.1.3-.3.5-.6.5-.9.2-1.7.2-2.5 0-.6-.1-1.2-.2-1.6-.8-.1-.1-.3-.2-.4-.2-.5-.1-1.1-.2-1.6-.2-.4-.1-.6.1-.9.4-.4.6-1.3 1.4-2.4.9-.7-.3-1.4-.2-2 .1-.6.2-1.3.4-2 .5-.5.1-.9 0-1.3-.3-.8-.8-1.3-1.7-1.4-2.8-.1-.9.2-1.7.7-2.5.5-.8.5-.9-.2-1.4-.3-.3-.5-.6-.4-1 0-.2.2-.3.1-.5 0-.2-.1-.5-.3-.5-.4-.2-.8-.1-1.1.4-.5.6-.9 1.3-1.7 1.5-.6.1-1.2.2-1.9.2h-.5c-.5 0-.7.3-.9.7-.4.7-.6.7-1.1.2-.1 0-.1-.1-.2-.1-.5-.3-1-.5-1.5-.7-.1-.1-.4.1-.5.2-.3.5-.3 1-.2 1.6.2.7.5 1.3 1.3 1.6.6.3.6 1.1 0 1.4l-.6.3c-1.3.7-2.6 1.5-3.9 2.2-.3.2-.5.2-.8.1-.5-.2-1-.2-1.4.1-.1.1-.2.1-.3 0-.6-.4-1.1-.9-1.2-1.6-.1-.7-.4-1.2-1.2-1.3-.5-.1-.9 0-1.4.2-.6.2-1.3.2-1.9.1-.5-.1-1-.1-1.4 0-.3 0-.5.3-.6.6 0 .4.2.6.5.7l.6.3c.2.1.3.4.3.5 0 .1-.2.3-.4.4-.3-.6-.5-.6-.8-.6-.9 0-1.3.6-.9 1.4.2.5.5 1 .9 1.4.7.9.7 1.6.1 2.5-.3.5-.7 1-.5 1.7 0 .1 0 .3-.1.4-.3.6-.5 1.2-.4 1.8 0 .2-.1.3-.1.5-.1.3-.3.7-.3 1-.1.8-.4 1.1-1.2.9-.7-.2-1.4-.1-2 .2-.2.1-.5.1-.8.2-.3 0-.6-.1-.9-.1-.1.4-.4.6-.7.6-.1 0-.2.1-.2.1-1.2.8-1.6 2.1-2 3.5-.1.4-.1.7-.5.9-.3.1-.5.4-.7.7-.5.7-.5 1.2.1 1.9.2.3.4.6.3 1.1z"/></g></svg>